<svg width="419" height="151" viewBox="0 0 419 151" fill="none" xmlns="http://www.w3.org/2000/svg">
<path d="M210.003 57.3276C206.614 55.3879 202.747 54.418 198.388 54.418C194.719 54.418 191.716 54.8621 189.332 55.7618C186.948 56.6616 185.055 57.8067 183.606 59.2089C182.169 60.6112 181.047 62.0484 180.276 63.5324H178.407V37.6499H166.371V112.902H178.407V83.8295C178.407 77.6013 179.902 72.8572 182.905 69.5853C185.908 66.3252 189.893 64.6893 194.871 64.6893C199.229 64.6893 202.653 65.8695 205.142 68.2532C207.631 70.6253 208.881 74.3061 208.881 79.2957V112.925H220.917V78.3609C220.917 73.3713 219.947 69.1179 217.996 65.5657C216.056 62.0251 213.38 59.2791 210.003 57.3393V57.3276Z" fill="#1B1B1B"/>
<path d="M276.608 57.3855C272.448 54.9316 267.599 53.7047 262.06 53.7047C256.522 53.7047 251.368 54.9316 247.057 57.3855C242.745 59.8394 239.368 63.2982 236.961 67.7736C234.542 72.249 233.338 77.4956 233.338 83.4784V84.8806C233.338 90.7933 234.565 95.9931 237.007 100.469C239.461 104.944 242.873 108.414 247.22 110.857C251.579 113.31 256.685 114.537 262.516 114.537C267.739 114.537 272.016 113.719 275.358 112.084C278.712 110.448 281.411 108.426 283.467 106.007C285.524 103.6 287.113 101.298 288.2 99.1248L278.268 93.9833C277.017 96.6358 275.241 98.9728 272.951 100.983C270.661 103.016 267.249 104.021 262.738 104.021C257.912 104.021 253.881 102.525 250.656 99.522C247.419 96.519 245.736 92.4993 245.573 87.4396H289.824V82.8824C289.824 77.0399 288.656 71.9452 286.319 67.5866C283.982 63.2281 280.733 59.8277 276.573 57.3738H276.597L276.608 57.3855ZM245.725 78.2201C246.344 73.8615 248.085 70.4612 250.924 68.0073C253.764 65.5534 257.445 64.3265 261.967 64.3265C266.489 64.3265 270.146 65.5534 272.939 68.0073C275.744 70.4612 277.298 73.8732 277.602 78.2201H245.725Z" fill="#1B1B1B"/>
<path d="M413.429 102.877C411.255 102.877 410.157 101.72 410.157 99.371V75.6736C410.157 68.6742 408.007 63.2523 403.73 59.443C399.453 55.6336 393.576 53.7173 386.097 53.7173C381.271 53.7173 377.147 54.5002 373.723 56.0543C370.299 57.6084 367.553 59.6533 365.496 62.1773C363.44 64.713 361.933 67.5291 360.998 70.649L372.204 74.2714C372.905 71.1515 374.354 68.6275 376.527 66.6761C378.701 64.7363 381.856 63.7665 385.992 63.7665C390.129 63.7665 393.307 64.7831 395.34 66.8046C397.374 68.8378 398.367 71.5137 398.367 74.8673V78.6066H380.851C376.644 78.6066 372.893 79.2726 369.586 80.593C366.279 81.9135 363.674 83.8766 361.757 86.4823C359.841 89.0881 358.894 92.3716 358.894 96.3446C358.894 100.318 359.841 103.543 361.757 106.277C363.674 109 366.233 111.056 369.469 112.47C372.706 113.872 376.375 114.573 380.512 114.573C384.648 114.573 387.675 114.001 390.094 112.879C392.501 111.746 394.335 110.413 395.586 108.859C396.836 107.305 397.759 105.95 398.39 104.77H400.143V105.12C400.143 107.539 400.996 109.444 402.714 110.846C404.42 112.248 406.64 112.949 409.362 112.949H418.348V102.9H413.452L413.429 102.877ZM398.367 89.0881C398.367 93.9141 396.883 97.7117 393.926 100.469C390.97 103.239 387.067 104.618 382.241 104.618C378.736 104.618 375.978 103.835 373.945 102.281C371.912 100.726 370.918 98.6232 370.918 95.9706C370.918 93.3181 371.888 91.32 373.828 89.9645C375.768 88.5973 378.338 87.9196 381.54 87.9196H398.355V89.0881H398.367Z" fill="#1B1B1B"/>
<path d="M353.075 55.3416H339.895L326.877 79.2494H321.876L308.859 55.3416H295.666L311.874 83.8299L294.919 112.903H308.613L321.853 88.4806H326.854L340.093 112.903H353.788L336.833 83.8299L353.04 55.3416H353.075Z" fill="#1B1B1B"/>
<path d="M0 37.6378V112.902L65.1913 150.539L130.371 112.902V37.6378L65.1913 0L0 37.6378Z" fill="#1B1B1B"/>
<path d="M63.1344 74.0849V42.3599L35.651 58.2282V89.9533L63.1344 74.0849Z" fill="#31B5C5"/>
<path d="M4.08993 74.0849L31.5616 89.9533V58.2282L4.08993 42.3599V74.0849Z" fill="#DEE0E2"/>
<path d="M6.13467 38.8066L33.6064 54.675L92.663 20.5895L65.1913 4.72109L6.13467 38.8066Z" fill="white"/>
<path d="M92.6632 93.4931L65.1798 77.6364L37.7081 93.4931L65.1915 109.362L92.6632 93.4931Z" fill="#FFB1E6"/>
<path d="M67.2362 74.0849L94.7079 89.9533V58.2166L67.2362 42.3599V74.0849Z" fill="#FB8144"/>
<path d="M32.6016 95.2803C32.6016 95.2803 32.5899 95.2803 32.5782 95.2803L4.08993 78.8159V110.553L63.1465 144.65V112.913L32.6133 95.2803H32.6016Z" fill="#DEE0E2"/>
<path d="M124.236 38.8181L96.7522 22.9497L69.2805 38.8181L96.7522 54.6748L124.236 38.8181Z" fill="white"/>
<path d="M98.7981 126.411L126.281 110.543V42.3599L98.7981 58.2283V126.411Z" fill="#F2F4F7"/>
<path d="M94.7079 97.0449L67.2362 112.902V144.638L94.7079 128.782V97.0449Z" fill="#F2F4F7"/>
</svg>
